<svg width="16" height="16" viewBox="0 0 16 16" fill="none" xmlns="http://www.w3.org/2000/svg">
<path d="M15.9477 6.12698C15.8194 5.69379 15.4478 5.3769 14.9998 5.31848L10.7475 4.73107L9.06483 0.710207C8.81916 0.121664 8.14287 -0.156252 7.55434 0.0894232C7.27378 0.206569 7.05071 0.429612 6.9336 0.710174L5.25088 4.73104L0.998654 5.31844C0.365088 5.40666 -0.0770088 5.99176 0.0112096 6.6253C0.0491084 6.89756 0.182591 7.14745 0.38782 7.33032L3.59157 10.1873L2.93333 14.6704C2.86202 15.1256 3.0711 15.5792 3.46358 15.8206C3.85054 16.0681 4.34828 16.0588 4.72576 15.7972L7.99921 13.571L11.2727 15.7995C11.8009 16.158 12.5197 16.0204 12.8782 15.4922C13.0412 15.2521 13.1079 14.9596 13.0651 14.6727L12.4069 10.1879L15.6106 7.33092C15.9508 7.03134 16.0829 6.55964 15.9477 6.12698Z" fill="#FFC000"/>
</svg>
